<?xml version="1.0" encoding="UTF-8"?>
<svg id="Capa_1" data-name="Capa 1" xmlns="http://www.w3.org/2000/svg" viewBox="0 0 498 498">
  <defs>
    <style>
      .cls-1 {
        fill: #fff;
      }

      .cls-2 {
        fill: #57773d;
      }
    </style>
  </defs>
  <circle class="cls-2" cx="249" cy="249" r="249"/>
  <g>
    <g>
      <rect class="cls-1" x="256.01" y="192.6" width="70.74" height="113.11" rx="11.34" ry="11.34" transform="translate(540.53 -42.22) rotate(90)"/>
      <rect class="cls-1" x="256.01" y="277.35" width="70.74" height="113.11" rx="11.34" ry="11.34" transform="translate(625.28 42.53) rotate(90)"/>
      <path class="cls-1" d="M267.35,107.85h48.05c6.26,0,11.34,5.08,11.34,11.34v90.43c0,6.26-5.08,11.34-11.34,11.34h-48.05c-6.26,0-11.34-5.08-11.34-11.34V119.19c0-6.26,5.08-11.34,11.34-11.34Z" transform="translate(455.78 -126.97) rotate(90)"/>
      <rect class="cls-1" x="256.01" y="192.6" width="70.74" height="113.11" rx="11.34" ry="11.34" transform="translate(540.53 -42.22) rotate(90)"/>
    </g>
    <path class="cls-1" d="M161.41,128.73h48.05c6.26,0,11.34,5.08,11.34,11.34v90.73c0,6.26-5.08,11.34-11.34,11.34h-48.05c-6.26,0-11.34-5.08-11.34-11.34v-90.73c0-6.26,5.08-11.34,11.34-11.34Z"/>
    <path class="cls-1" d="M161.41,256.16h48.05c6.26,0,11.34,5.08,11.34,11.34v90.43c0,6.26-5.08,11.34-11.34,11.34h-48.05c-6.26,0-11.34-5.08-11.34-11.34v-90.43c0-6.26,5.08-11.34,11.34-11.34Z"/>
  </g>
</svg>