<?xml version="1.0" encoding="utf-8"?>
<!-- Generator: Adobe Illustrator 18.1.1, SVG Export Plug-In . SVG Version: 6.00 Build 0)  -->
<svg version="1.1" id="Layer_1" xmlns="http://www.w3.org/2000/svg" xmlns:xlink="http://www.w3.org/1999/xlink" x="0px" y="0px"
	 viewBox="0 0 197.7 61.9" enable-background="new 0 0 197.7 61.9" xml:space="preserve">
<path fill="#57773D" d="M78.8,23.5c0,4.6-3.7,6.7-10.9,6.7c-1.4,0-4.6-0.1-6.7-0.2h0l0.3-6.7l-0.3-16l9,0c4.8,0,7.7,2,7.7,5.8
	c0,2.4-1.2,4.3-3.5,5.3C77.5,19,78.8,20.7,78.8,23.5 M73,23.3c0-1.5-0.9-2.3-2.8-2.7l-3.7,0.1l0,2.1l0.1,3.4
	c0.9,0.1,1.8,0.1,2.4,0.1C71.5,26.3,73,25.2,73,23.3 M67.9,11.2h-1.1l-0.1,5.5l3,0.1c1.6-0.5,2.4-1.4,2.4-3.1
	C72.1,11.8,71,11.2,67.9,11.2 M101.7,30h-5.8l-0.6-3.3L95,25.4l-4.1-0.1l-3.5,0.1l-0.3,0.9L86.4,30h-5.6l7.3-22.8H95L101.7,30z
	 M93.9,21.1l-2.2-8.7h-0.4l-2.6,8.7l2.6,0.1L93.9,21.1z M127.7,7.2h-6.5l-0.9,3.4l-3.2,9.6h-0.4l-2.9-9.7l-0.8-3.3h-6.6L104.2,30
	h4.8l0.5-7.5l0.7-7h0.4l4,12.1h4.4l4.5-12.1h0.4l0.6,7.5l0.3,6.9h5.1L127.7,7.2z M152,23.5c0,4.6-3.7,6.7-10.9,6.7
	c-1.4,0-4.6-0.1-6.7-0.2h0l0.3-6.7l-0.3-16l9,0c4.8,0,7.7,2,7.7,5.8c0,2.4-1.2,4.3-3.5,5.3C150.7,19,152,20.7,152,23.5 M146.2,23.3
	c0-1.5-0.9-2.3-2.8-2.7l-3.7,0.1l0,2.1l0.1,3.4c0.9,0.1,1.8,0.1,2.4,0.1C144.7,26.3,146.2,25.2,146.2,23.3 M141.1,11.2H140l-0.1,5.5
	l3,0.1c1.6-0.5,2.4-1.4,2.4-3.1C145.2,11.8,144.2,11.2,141.1,11.2 M174.4,18.8l0,3.3c0,5.3-3.4,8.3-9.5,8.3c-5.9,0-9.2-2.9-9-8.2
	l0.1-3.5l-0.1-11.5h5.7l-0.2,14.2c0,3,1.2,4.4,3.9,4.4c2.7,0,4-1.3,4-4.2l-0.2-14.3h5.8L174.4,18.8z M170.4,0.4l-0.3,3.1h-9.8
	L160,3.1l0.2-3.1h9.8L170.4,0.4z M81.1,49.3c0,8.1-4.2,12.6-11.7,12.6c-2,0-5.7-0.1-8.2-0.3h0l0.3-6.7l-0.3-16h0l9.6-0.1
	C77.5,38.7,81.1,42.5,81.1,49.3 M75.2,50.7c0-5.4-1.4-7.5-4.8-7.5c-0.7,0-2.3,0-3.4,0.1l-0.2,10.9l0.1,3c1.3,0.2,3,0.3,3.7,0.3
	C73.4,57.5,75.2,55.6,75.2,50.7 M94.3,57.1l-3.7,0l-0.1-2.8l0-2h3.4l4.1,0.1l0.4-4.2L98,47.8l-3.7,0.1h-3.7l0.1-4.6l3.9,0l5.5,0.2
	l0.4-4.2l-0.3-0.4H84.9l0.3,16l-0.3,6.7h15l0.4-4.2l-0.3-0.4L94.3,57.1z M116.8,56.9h-7.2l-0.1-2.6l0.3-15.5h-5.8l0.3,16l-0.3,6.7
	h12.8l0.4-4.3L116.8,56.9z M135.5,57.1l-3.7,0l-0.1-2.8l0-2h3.4l4.1,0.1l0.4-4.2l-0.3-0.4l-3.7,0.1h-3.7l0.1-4.6l3.9,0l5.5,0.2
	l0.4-4.2l-0.3-0.4h-15.3l0.3,16l-0.3,6.7h15l0.4-4.2l-0.3-0.4L135.5,57.1z M159.3,39.7c-2.3-0.9-4.4-1.2-6.1-1.2
	c-5.2,0-8.8,3.2-8.8,7.3c0,6.8,9.7,6.4,9.7,9.9c0,1-0.8,2-2.7,2c-1.6,0-4.1-0.8-6.3-2.6l-0.6,0.4l-0.8,5.1c2.4,1,4.8,1.4,7.1,1.4
	c5.5,0,9-3.2,9-7.3c0-6.7-9.8-6.5-9.8-9.8c0-1,0.9-1.9,2.5-1.9c1.3,0,3.2,0.7,5,1.9l0.8-0.3L159.3,39.7 M178.4,38.8h-16.5l-0.4,4.2
	l0.4,0.4l4.5-0.2h1.1l0.2,11.6l-0.3,6.7h5.7l-0.2-7.3l0.2-11.1h1l4.4,0.2l0.3-4.2L178.4,38.8z M191.5,57.1l-3.7,0l-0.1-2.8l0-2h3.4
	l4.1,0.1l0.4-4.2l-0.3-0.4l-3.7,0.1h-3.7l0.1-4.6l3.9,0l5.5,0.2l0.4-4.2l-0.3-0.4h-15.3l0.3,16l-0.3,6.7h15l0.4-4.2l-0.3-0.4
	L191.5,57.1z M19.1,39c0,1.8,1.5,3.3,3.3,3.3h19c1.8,0,3.3-1.5,3.3-3.3v-9.4c0-1.8-1.5-3.3-3.3-3.3h-19c-1.8,0-3.3,1.5-3.3,3.3V39
	 M19.1,58.2c0,1.8,1.5,3.3,3.3,3.3h19c1.8,0,3.3-1.5,3.3-3.3v-9.4c0-1.8-1.5-3.3-3.3-3.3h-19c-1.8,0-3.3,1.5-3.3,3.3V58.2
	 M19.1,19.9c0,1.8,1.5,3.3,3.3,3.3h19c1.8,0,3.3-1.5,3.3-3.3v-9.4c0-1.8-1.5-3.3-3.3-3.3h-19c-1.8,0-3.3,1.5-3.3,3.3V19.9 M19.1,39
	c0,1.8,1.5,3.3,3.3,3.3h19c1.8,0,3.3-1.5,3.3-3.3v-9.4c0-1.8-1.5-3.3-3.3-3.3h-19c-1.8,0-3.3,1.5-3.3,3.3V39 M12.7,32.7
	c1.8,0,3.3-1.5,3.3-3.3V10.4c0-1.8-1.5-3.3-3.3-3.3H3.3C1.5,7.2,0,8.6,0,10.4v19.1c0,1.8,1.5,3.3,3.3,3.3H12.7 M12.7,61.4
	c1.8,0,3.3-1.5,3.3-3.3v-19c0-1.8-1.5-3.3-3.3-3.3H3.3c-1.8,0-3.3,1.5-3.3,3.3v19c0,1.8,1.5,3.3,3.3,3.3H12.7"/>
</svg>
