<?xml version="1.0" encoding="utf-8"?>
<svg version="1.1" id="Layer_1" xmlns="http://www.w3.org/2000/svg" xmlns:xlink="http://www.w3.org/1999/xlink" x="0px" y="0px"
	 viewBox="0 0 44.6 54.3" enable-background="new 0 0 44.6 54.3" xml:space="preserve">
<path fill="#57773d" d="M19.1,31.9c0,1.8,1.5,3.3,3.3,3.3h19c1.8,0,3.3-1.5,3.3-3.3v-9.4c0-1.8-1.5-3.3-3.3-3.3h-19
	c-1.8,0-3.3,1.5-3.3,3.3V31.9 M19.1,51c0,1.8,1.5,3.3,3.3,3.3h19c1.8,0,3.3-1.5,3.3-3.3v-9.4c0-1.8-1.5-3.3-3.3-3.3h-19
	c-1.8,0-3.3,1.5-3.3,3.3V51 M19.1,12.8c0,1.8,1.5,3.3,3.3,3.3h19c1.8,0,3.3-1.5,3.3-3.3V3.3c0-1.8-1.5-3.3-3.3-3.3h-19
	c-1.8,0-3.3,1.5-3.3,3.3V12.8 M19.1,31.9c0,1.8,1.5,3.3,3.3,3.3h19c1.8,0,3.3-1.5,3.3-3.3v-9.4c0-1.8-1.5-3.3-3.3-3.3h-19
	c-1.8,0-3.3,1.5-3.3,3.3V31.9 M12.7,25.6c1.8,0,3.3-1.5,3.3-3.3V3.3C16,1.5,14.5,0,12.7,0H3.3C1.5,0,0,1.5,0,3.3v19.1
	c0,1.8,1.5,3.3,3.3,3.3H12.7 M12.7,54.3c1.8,0,3.3-1.5,3.3-3.3V32c0-1.8-1.5-3.3-3.3-3.3H3.3C1.5,28.7,0,30.2,0,32v19
	c0,1.8,1.5,3.3,3.3,3.3H12.7"/>
</svg>
