<?xml version="1.0" encoding="utf-8"?>
<!-- Generator: Adobe Illustrator 18.1.1, SVG Export Plug-In . SVG Version: 6.00 Build 0)  -->
<svg version="1.1" id="Layer_1" xmlns="http://www.w3.org/2000/svg" xmlns:xlink="http://www.w3.org/1999/xlink" x="0px" y="0px"
	 viewBox="0 300.2 138.4 191.9" enable-background="new 0 300.2 138.4 191.9" xml:space="preserve">
<path fill="#57773D" d="M59.1,420.9c0,5.6,4.6,10.2,10.2,10.2h58.8c5.6,0,10.2-4.6,10.2-10.2v-29.1c0-5.6-4.6-10.2-10.2-10.2H69.3
	c-5.6,0-10.2,4.6-10.2,10.2L59.1,420.9 M59.1,480.4c0,5.6,4.6,10.2,10.2,10.2h58.8c5.6,0,10.2-4.6,10.2-10.2v-29.1
	c0-5.6-4.6-10.2-10.2-10.2H69.3c-5.6,0-10.2,4.6-10.2,10.2L59.1,480.4 M59.1,361.8c0,5.6,4.6,10.2,10.2,10.2h58.8
	c5.6,0,10.2-4.6,10.2-10.2v-29.1c0-5.6-4.6-10.2-10.2-10.2H69.3c-5.6,0-10.2,4.6-10.2,10.2L59.1,361.8 M59.1,420.9
	c0,5.6,4.6,10.2,10.2,10.2h58.8c5.6,0,10.2-4.6,10.2-10.2v-29.1c0-5.6-4.6-10.2-10.2-10.2H69.3c-5.6,0-10.2,4.6-10.2,10.2
	L59.1,420.9 M39.3,401.4c5.6,0,10.2-4.6,10.2-10.2v-58.8c0-5.6-4.6-10.2-10.2-10.2H10.2C4.6,322.5,0,326.8,0,332.4v59.1
	c0,5.6,4.6,10.2,10.2,10.2h29.1 M39.3,490.3c5.6,0,10.2-4.6,10.2-10.2v-58.8c0-5.6-4.6-10.2-10.2-10.2H10.2C4.6,411,0,415.7,0,421.2
	V480c0,5.6,4.6,10.2,10.2,10.2H39.3"/>
</svg>
